<?xml version="1.0" encoding="utf-8"?>
<!-- Generator: Adobe Illustrator 23.0.2, SVG Export Plug-In . SVG Version: 6.00 Build 0)  -->
<svg version="1.1" id="Capa_1" xmlns="http://www.w3.org/2000/svg" xmlns:xlink="http://www.w3.org/1999/xlink" x="0px" y="0px"
	 viewBox="0 0 407.5 407.5" style="enable-background:new 0 0 407.5 407.5;" xml:space="preserve">
<style type="text/css">
	.st0{fill:url(#SVGID_1_);}
	.st1{fill:url(#SVGID_2_);}
	.st2{fill:url(#SVGID_3_);}
	.st3{fill:url(#SVGID_4_);}
	.st4{fill:url(#SVGID_5_);}
</style>
<g>
	<g>
		<g>
			<linearGradient id="SVGID_1_" gradientUnits="userSpaceOnUse" x1="0" y1="203.7667" x2="407.5336" y2="203.7667">
				<stop  offset="0" style="stop-color:#23D997"/>
				<stop  offset="1" style="stop-color:#239157"/>
			</linearGradient>
			<path class="st0" d="M407,226.8C407,226.8,407,226.8,407,226.8L330,33.6c-1.6-4.1-6.3-6.1-10.4-4.5c0,0,0,0,0,0L7.5,153.5
				c-1.3,0.6-2.4,1.4-3.2,2.5c-2.6,1.3-4.2,4-4.3,6.9v208c0,4.4,3.6,8,8,8h336c4.4,0,8-3.6,8-8V257.3l50.5-20.1
				C406.6,235.6,408.6,230.9,407,226.8z M336,362.9H16v-192h320V362.9z M133.5,155l134-53.4c12,12.6,28.5,19.7,45.9,19.8l13.4,33.6
				H133.5z M352,240.2v-77.2c0-4.4-3.6-8-8-8h-0.1l-17-42.6c-0.2-0.4-0.4-0.7-0.7-1c-0.9-3.9-4.4-6.5-8.4-6.2
				c-16.1,1.5-31.9-5.3-41.9-18.1c-2.5-3.1-6.9-3.8-10.3-1.8c-0.4,0-0.8,0.1-1.1,0.2L101,150.7c-2,0.8-3.6,2.3-4.4,4.3H47L318.1,47
				l71,178.4L352,240.2z"/>
			<linearGradient id="SVGID_2_" gradientUnits="userSpaceOnUse" x1="32" y1="266.9514" x2="320" y2="266.9514">
				<stop  offset="0" style="stop-color:#23D997"/>
				<stop  offset="1" style="stop-color:#239157"/>
			</linearGradient>
			<path class="st1" d="M37.7,308.9c15.5,4.6,27.7,16.7,32.3,32.3c1,3.4,4.1,5.7,7.7,5.7c0.4,0,0.8-0.1,1.2-0.2
				c0.4,0.1,0.7,0.2,1.1,0.2h192c0.3,0,0.7-0.1,1-0.2c4,1,8-1.5,9-5.5c0,0,0,0,0,0c4.6-15.5,16.8-27.7,32.3-32.3
				c3.8-1.2,6.1-4.9,5.5-8.8c0.1-0.4,0.2-0.8,0.2-1.2v-64c0-0.4-0.1-0.8-0.2-1.2c0.6-3.9-1.7-7.7-5.5-8.8
				c-15.5-4.6-27.7-16.8-32.3-32.3c-1.2-3.8-5-6.1-8.9-5.5c-0.4-0.1-0.7-0.2-1.1-0.2H80c-0.4,0-0.8,0.1-1.2,0.2
				c-3.9-0.6-7.6,1.7-8.8,5.5c-4.6,15.5-16.8,27.7-32.3,32.3c-3.8,1.2-6.1,4.9-5.5,8.8c-0.1,0.4-0.2,0.8-0.2,1.2v64
				c0,0.4,0.1,0.7,0.2,1.1C31.6,304,33.9,307.8,37.7,308.9z M48,238.2c16.1-6.5,28.8-19.2,35.2-35.2h185.5
				c6.5,16.1,19.2,28.8,35.3,35.2v57.5c-16.1,6.5-28.8,19.2-35.2,35.2H83.2c-6.5-16.1-19.2-28.8-35.2-35.2V238.2z"/>
			<linearGradient id="SVGID_3_" gradientUnits="userSpaceOnUse" x1="128" y1="266.945" x2="224" y2="266.945">
				<stop  offset="0" style="stop-color:#23D997"/>
				<stop  offset="1" style="stop-color:#239157"/>
			</linearGradient>
			<path class="st2" d="M176,314.9c26.5,0,48-21.5,48-48s-21.5-48-48-48s-48,21.5-48,48C128,293.4,149.5,314.9,176,314.9z
				 M176,234.9c17.7,0,32,14.3,32,32s-14.3,32-32,32s-32-14.3-32-32S158.3,234.9,176,234.9z"/>
			<linearGradient id="SVGID_4_" gradientUnits="userSpaceOnUse" x1="76" y1="266.945" x2="100" y2="266.945">
				<stop  offset="0" style="stop-color:#23D997"/>
				<stop  offset="1" style="stop-color:#239157"/>
			</linearGradient>
			<path class="st3" d="M88,278.9c6.6,0,12-5.4,12-12s-5.4-12-12-12s-12,5.4-12,12C76,273.6,81.4,278.9,88,278.9z M88,262.9
				c2.2,0,4,1.8,4,4s-1.8,4-4,4s-4-1.8-4-4S85.8,262.9,88,262.9z"/>
			<linearGradient id="SVGID_5_" gradientUnits="userSpaceOnUse" x1="252" y1="266.945" x2="276" y2="266.945">
				<stop  offset="0" style="stop-color:#23D997"/>
				<stop  offset="1" style="stop-color:#239157"/>
			</linearGradient>
			<path class="st4" d="M264,278.9c6.6,0,12-5.4,12-12s-5.4-12-12-12s-12,5.4-12,12C252,273.6,257.4,278.9,264,278.9z M264,262.9
				c2.2,0,4,1.8,4,4s-1.8,4-4,4s-4-1.8-4-4S261.8,262.9,264,262.9z"/>
		</g>
	</g>
</g>
</svg>
